<?xml version="1.0" encoding="UTF-8" standalone="no"?>
<!-- Created with Inkscape (http://www.inkscape.org/) -->

<svg
   width="210mm"
   height="297mm"
   viewBox="0 0 210 297"
   version="1.1"
   id="svg1"
   inkscape:version="1.4.2 (f4327f4, 2025-05-13)"
   sodipodi:docname="assinatura.svg"
   xmlns:inkscape="http://www.inkscape.org/namespaces/inkscape"
   xmlns:sodipodi="http://sodipodi.sourceforge.net/DTD/sodipodi-0.dtd"
   xmlns="http://www.w3.org/2000/svg"
   xmlns:svg="http://www.w3.org/2000/svg">
  <sodipodi:namedview
     id="namedview1"
     pagecolor="#ffffff"
     bordercolor="#000000"
     borderopacity="0.25"
     inkscape:showpageshadow="2"
     inkscape:pageopacity="0.0"
     inkscape:pagecheckerboard="0"
     inkscape:deskcolor="#d1d1d1"
     inkscape:document-units="mm"
     inkscape:zoom="0.72604517"
     inkscape:cx="396.66953"
     inkscape:cy="561.25984"
     inkscape:window-width="2560"
     inkscape:window-height="1017"
     inkscape:window-x="-8"
     inkscape:window-y="-8"
     inkscape:window-maximized="1"
     inkscape:current-layer="layer1" />
  <defs
     id="defs1" />
  <g
     inkscape:label="Camada 1"
     inkscape:groupmode="layer"
     id="layer1">
    <path
       style="fill:#000000;stroke-width:0.264583"
       id="path2"
       d="m 78.153701,61.542876 c -2.356281,-1.261795 -4.930323,-1.691912 -7.585583,-1.703922 -0.869857,-0.0039 -1.738395,0.06825 -2.60759,0.10237 -3.361241,0.269793 -6.578357,1.237856 -9.320266,3.246903 -1.682538,1.232829 -2.655287,2.294404 -4.132942,3.748276 -2.183106,2.369817 -4.023186,5.057513 -5.528736,7.905244 -0.631717,1.194888 -1.171149,2.449769 -1.723163,3.682386 -0.852397,2.057168 -1.689282,4.139592 -2.058103,6.348143 -0.233498,1.398217 -0.216551,1.950185 -0.278522,3.349064 0.108215,2.802255 0.859052,5.524807 2.407039,7.88234 0.332801,0.506843 0.724736,0.97229 1.087104,1.458436 1.107096,1.250402 2.284174,2.498104 3.746611,3.343624 1.223251,0.70724 3.994375,2.80386 6.113513,2.78766 0.634026,-0.005 1.254347,-0.18619 1.881521,-0.27928 4.087701,-1.13506 8.368863,-2.59106 11.947517,-4.927722 0.665096,-0.434269 1.275439,-0.947113 1.913159,-1.42067 2.400808,-2.090044 4.328147,-4.63928 5.370492,-7.666804 0.168444,-0.489247 0.285694,-0.994646 0.42854,-1.491967 0.09748,-0.447667 0.199975,-0.894271 0.292431,-1.343001 0.294447,-1.429052 1.182438,-3.478409 -3.29369,-1.870472 -0.70912,0.254733 -0.203327,1.49352 -0.277918,2.243301 -0.154263,1.550628 -0.272365,3.10464 -0.408546,4.656961 -0.673634,7.694149 -0.910055,15.418474 -1.454441,23.120854 -0.271177,3.83682 -0.579683,7.6713 -0.93608,11.50115 -1.042821,11.20616 -1.526095,14.31454 -2.944241,25.64223 -1.746483,12.50135 -3.64368,24.98812 -6.176192,37.35811 -1.330391,6.49825 -2.90018,13.41555 -4.792229,19.79763 -0.767395,2.58852 -1.703866,5.12388 -2.555801,7.68582 -1.814322,4.83085 -3.694673,10.04796 -7.862244,13.42613 -1.445559,1.17175 -3.812553,2.34394 -5.790501,2.13186 -1.040191,-0.11153 -1.963767,-0.72205 -2.945649,-1.08308 -0.0643,-0.48255 0.04924,-1.02533 -0.192902,-1.44766 -0.946656,-1.65113 -2.309887,-3.03352 -3.306117,-4.65523 -3.076914,-5.00873 -6.180595,-11.88166 -6.300311,-17.85526 -0.04896,-2.44273 0.571092,-4.85296 0.856638,-7.27944 0.824333,-2.42386 1.357268,-4.96728 2.473,-7.27157 2.587493,-5.34388 6.956406,-10.63476 10.828406,-15.02703 4.945467,-5.61 8.897572,-9.20199 14.14018,-14.54249 2.510546,-2.55743 4.972042,-5.16255 7.458064,-7.74383 2.337163,-2.56745 4.756888,-5.06211 7.01149,-7.70235 5.217094,-6.10948 10.800384,-13.60454 15.512349,-20.0156 7.224112,-9.82909 10.398498,-14.21878 16.936552,-24.60048 2.5174,-3.997342 4.86934,-8.096519 7.30401,-12.144776 4.07186,-8.305051 7.44191,-14.40204 10.32531,-23.141638 2.15658,-6.53661 3.49768,-13.52482 4.14777,-20.373998 0.63389,-6.678496 0.30646,-8.989539 -0.0211,-15.378949 -0.57219,-3.762462 -0.33479,-11.811461 -7.01066,-10.943 -1.56647,0.20378 -2.30616,2.182839 -3.2473,3.451532 -6.61195,8.913117 -6.95589,12.217337 -12.13224,24.129547 -7.527996,21.44164 -8.908465,23.770894 -14.482085,46.636329 -2.078117,8.525353 -4.032956,17.092713 -5.494988,25.745043 -1.649516,9.76185 -2.882932,19.59782 -3.832043,29.45246 -2.279261,23.66558 -2.272853,39.08566 -2.88023,62.69742 -0.104799,9.05869 -0.209598,18.11738 -0.314396,27.17608 0,0 1.42336,0.72641 1.42336,0.72641 v 0 c 0.01468,-9.10385 0.02934,-18.2077 0.04402,-27.31155 0.556651,-25.28746 0.317047,-37.26154 2.954051,-62.64243 2.809283,-27.03904 8.251965,-53.918968 16.674619,-79.782695 2.369002,-7.274586 5.340782,-14.338869 8.011182,-21.508304 5.50388,-11.299023 6.21064,-15.02859 13.09527,-23.439058 0.9327,-1.139422 2.63317,-1.670292 3.22535,-3.018454 0.26182,-0.596038 -1.25825,-2.163645 -1.23487,-1.51306 0.10645,2.962625 3.95671,5.183478 2.17304,8.624048 0.45528,6.461969 0.83221,8.661747 0.27557,15.437387 -0.56934,6.93025 -1.82739,13.766861 -3.94669,20.401013 -2.90485,9.093247 -5.93919,14.526937 -10.13344,23.196793 -2.40769,4.059356 -4.71457,8.180231 -7.22309,12.17807 -6.117067,9.74877 -10.164181,15.34919 -17.03908,24.51877 -4.714314,6.28785 -10.561738,13.81995 -15.746137,19.84526 -2.261161,2.62793 -4.653638,5.13994 -6.980455,7.70991 -2.497727,2.57193 -4.974476,5.1644 -7.49318,7.7158 -5.105238,5.1715 -9.373245,9.11063 -14.200878,14.54104 -3.779863,4.25182 -8.466761,9.85884 -11.034498,15.04258 -1.145746,2.31303 -1.688451,4.87857 -2.532679,7.31785 -0.31936,2.4461 -0.979397,4.87154 -0.958085,7.33831 0.0369,4.27074 1.606074,8.65701 3.315864,12.48793 1.017863,2.28059 4.165039,8.24684 6.04184,10.15047 1.923923,1.95143 4.297616,3.40128 6.446425,5.10192 1.024749,0.31468 2.004123,0.88108 3.074252,0.94403 2.015236,0.11855 4.395464,-1.15618 5.832284,-2.38903 4.108079,-3.5249 5.910882,-8.80832 7.632856,-13.73105 0.818573,-2.58741 1.718455,-5.15049 2.455722,-7.76223 1.772163,-6.27782 3.362412,-13.55967 4.61949,-19.91462 2.453664,-12.40407 4.297318,-24.91538 6.075132,-37.43049 0.571524,-4.38758 1.18427,-8.76999 1.714572,-13.16274 0.886867,-7.34637 1.812348,-16.42683 2.462247,-23.84584 1.59571,-18.216018 0.02577,-1.61678 1.25096,-16.660966 0.169733,-2.084168 0.39039,-4.163873 0.585587,-6.24581 0.195712,-1.515552 0.370184,-3.033996 0.587137,-4.546653 0.106373,-0.741651 0.755745,-1.565172 0.382645,-2.214912 -3.625421,-6.313556 -3.345534,-2.749473 -3.858688,-0.438827 -0.134689,0.486886 -0.244232,0.981438 -0.404067,1.460659 -0.990523,2.969813 -2.85837,5.471832 -5.204124,7.517487 -0.628372,0.462034 -1.231108,0.961133 -1.885119,1.386102 -3.525467,2.290805 -7.832415,3.81512 -11.901061,4.77391 -0.613024,0.053 -1.224563,0.1902 -1.839074,0.1589 -1.494946,-0.0761 -2.881804,-1.27929 0.56688,0.95999 0.441212,0.28649 -0.900168,-0.54813 -1.319574,-0.86569 -1.085456,-0.82185 -1.547591,-1.38442 -2.492714,-2.370122 -0.365755,-0.470241 -0.760749,-0.919131 -1.097264,-1.410721 -1.562367,-2.282349 -2.355575,-4.935564 -2.496167,-7.683664 0.04637,-1.419082 0.01619,-1.870993 0.248015,-3.289628 0.357024,-2.184657 1.172356,-4.250693 1.99594,-6.292419 0.601224,-1.374402 0.986624,-2.315832 1.687235,-3.659775 1.473226,-2.826006 3.272062,-5.49235 5.429803,-7.841022 1.568995,-1.538677 2.30559,-2.381282 4.108868,-3.664196 2.72256,-1.936917 5.892099,-2.858625 9.200017,-3.090511 0.866021,-0.02138 1.73205,-0.08573 2.598066,-0.06413 2.681237,0.06689 5.267767,0.618035 7.614899,1.938774 z" />
    <path
       style="fill:#000000;stroke-width:0.264583"
       id="path3"
       d="m 50.551828,151.28073 c 4.763386,-0.31905 9.52877,-0.60954 14.290156,-0.95714 39.658916,-2.89535 22.084991,-1.68124 70.138086,-6.18721 18.27253,-1.71342 36.55133,-3.35924 54.82699,-5.03885 0,0 -0.0651,-0.0464 -0.0651,-0.0464 v 0 c -47.27868,4.27129 -94.582163,9.15382 -142.078961,10.15368 z" />
  </g>
</svg>
